<svg width="340" height="340" viewBox="0 0 340 340" fill="none" xmlns="http://www.w3.org/2000/svg">
<rect width="340" height="340" fill="white"/>
<path d="M269 154L275.5 163.5L288 176L287 159.5L284.5 144L279.5 130.5L275.5 122L271.5 114.5L265.5 106L260.5 105.5H258L254 106L250 107.5L246.5 105.5L243.5 104.5L239.5 105.5H234.5L230 107.5L227 106L223 104.5H219H212H205.5L202.5 106L196 104.5H190L186 103.5L180.5 105.5L177 103.5H170L175.5 102L179 99L180.5 97L183.5 94.5L186 91H190H197.5H203L208 88L210 84L216.5 83L220 85.5L224 84L228 85.5L230 81.5L234.5 79.5H240.5L230 72L216.5 64.5L199 57.5L179 53.5L163.5 52.5L146.5 53.5L130 56L117 61L105.5 66L111 69L115 73L118 78.5L118.5 84L115 92L109.5 97L105.5 99H101L94 96L89 92L85.5 85.5V79.5L73 90.5L64.5 100.5L57 112L51.5 123L50 129H53.5L57 128L63.5 132H69.5L75.5 137L79 136L84 138.5L81.5 139.5L75.5 141L70.5 140L68.5 141H64.5H61.5L59.5 143L57.5 142H55.5L50 139.5L44.5 142L42 150.5L40 176.5L44.5 206.5L51.5 199.5L57 195.5L68.5 183L79 171.5M269 154L258 159.5M269 154L267.174 163.5V175M258 159.5L246.5 136L238 128.5L230 138.5L219 151L214.5 148.5L197.5 166.5L183.5 187M258 159.5L262 166.5L267.174 175M183.5 187L175.5 178L155 158L147.5 138.5H143L136.5 128.5M183.5 187V189.5L187 193L194.25 200.25M136.5 128.5L125 137L121.5 144L110.5 156.5L104.5 154M136.5 128.5L132.5 136L131 144M104.5 154L89 174L79 171.5M104.5 154V166.5L106.5 178M79 171.5L82.5 177.5L84 184.5V194L89 203.5M201.5 207.5L194.25 200.25M278.5 195L269 178L267.174 175M194.25 200.25L208 195.5L209.159 197M216.5 206.5L209.159 197M209.159 197L216.5 194L223 197L233 203.5L243.5 207.5L252 214.5L258 216L273.5 228M128 169V160.5L129.5 151" stroke="black" stroke-linecap="round"/>
<path d="M55.5 233.5H70L84 230L101.5 220.5L118.5 215.5L134.5 222L147.25 227.75M160 233.5L147.25 227.75M147.25 227.75L160 224L170 225.5L179.5 227.75L193 230L215 237.5M205.5 240L218 237.5L228.5 232H242.5H257L277 227.75M76.5 261.5H90.5L107.5 258L124.5 261.5L149 264.5L193 269M160 278.5L183.5 272.5L205.5 261.5L218 255H236.5H258.5M106 285L118.5 282.5L143 285L171 286H193L215 278.5L238 276" stroke="black" stroke-linecap="round"/>
<path d="M123.5 173L125.5 179.5L126.5 190.5L124 209L120.5 226.5L121 236L124 244M128.5 244L129.5 232.5M130.5 228.5L129.5 216.5L128.5 208.5L127.5 201M136 195.5L138 203.5L139.5 214M141 204.5L141.5 210.5L144 219.5L146.5 225.5M145 214L145.5 218.5L149 224.5M158 202L159 209L160.5 216L163 221.5M166.5 223L163.5 217L162 212L161.5 207M159 216L157 210L156 204L155.5 196L156 189M99 178.5L96.5 186L95.5 193V201M93.5 195.5L94 187.5L96.5 178.5L100 171M102.5 160L98.5 166L95.5 172M58.5 201L56.5 209L53.5 216.5L50.5 222M61.5 201L59.5 208.5L56 217.5M63 193L62 198.5M76.5 179.5L74 189M75.5 192L74 198.5L73.5 206M72.5 194.5L71.5 204M82.5 207L83 213M84.5 214V228.5M100 194.5L100.5 205.5L101.5 214M211.5 161L212 165.5L214.5 172L215.036 174.5M214.5 186.5L216 179L215.036 174.5M216 160.5L215.5 166.5L215.036 174.5M227.5 153.5L225.5 161L223.5 168.5M246 164L247.5 173.5L253.5 186.5M225.5 208.5L230 216L235 221.5M223.5 222L218 218.5M273.5 171V174.5M278 173.5V178.5L280.5 182.5M139.5 156L141.5 165.5L146.5 168.5L149 174.5M239 136.5L241 140V144M235 142.5L233.5 152.5M243.5 216L246 217.5L251 219.5L259.5 226.5M179.5 194.5L182 201L188.5 208.5" stroke="black" stroke-width="0.5" stroke-linecap="round"/>
</svg>
