<svg width="340" height="340" viewBox="0 0 340 340" fill="none" xmlns="http://www.w3.org/2000/svg">
<rect width="340" height="340" fill="white"/>
<path d="M80.5 174L71.5 178L62.5 185L54 193L48 201L46 209L47 217L51 223.5L58 229L68.5 233.5L79.5 236L91 237L102 237.5L108.5 237.303M80.5 174L81 167L83.5 154.5L87 144L91.5 132.5L97 124L104 114.5L112 107L120 101.5L128.5 96.5C132.167 95 139.6 91.9 140 91.5C140.4 91.1 147.5 89 151 88L167.5 86.5L181.5 87.5L195.5 90L208 95L220 102.5L228.5 109.5L235.5 116.5L241.5 123.5M80.5 174V180.5L81.5 188M241.5 123.5L250.5 122L262.5 121.5L274 123L284.5 127L291.5 132.5L294 140L293.5 149L290 157.5L279.5 171L271 179.5L258 189.5L254.667 191.5M241.5 123.5L245 128.5L248 135M81.5 188L77.5 190.5L74 195L72.5 200L73 205L75.5 209L80.5 212L88 215L90.5 215.469M81.5 188L84 196.5L86.5 205L90.5 215.469M248 135H254.5L262.5 138L265.5 142L266 148L264.5 153.5L260.5 159L256.833 163M248 135L251 142L254.667 153.5L256.833 163M108.5 237.303L118.5 237L139.5 234.5L157 231L172.5 227L192 221L211.5 213.5L227 206.5L243 198.5L254.667 191.5M108.5 237.303L113.5 243L121.5 249L130.5 253.5L139.5 257L150.5 260.5L163 262.5H175L186 261.5L195.5 259L203 256L212.5 251.5L220 246.5L226 242L234 233.5L242 223.5L247.5 214L252.5 202L254.667 191.5M256.833 163L255 165L250 170L244 174.5L236.5 179.5L229.5 184L222.5 188L215.5 191.5L206.5 196L195 201L183.5 205L171.5 208.5L160 211.5L148 214L136 216L124 217L112.5 217.5L103.5 217L96 216.5L90.5 215.469" stroke="black" stroke-linecap="round"/>
<path d="M176 134.5L182 131.5L191.5 126L201 119L207.5 112L211.5 105L214 99M129.5 113L122.5 112.5L116.5 110.5L111.5 107.5M140 111.5L147.5 109.5L155.5 107L163.5 102.5C165.833 100.833 170.6 97.4 171 97C171.4 96.6 174.167 93.5 175.5 92L177.5 87.5M117.5 128.5L122 129.5H129.5L137.5 128.5L144.5 127L153 125M123 148C123.4 148 125.833 147.667 127 147.5L131.5 147L135.5 146M114.5 147.5L107 147L100 144.5C98 143.5 93.9 141.5 93.5 141.5C93.1 141.5 90.3333 139.833 89 139M106.5 186.5L98.5 185L89.5 181.5L80.5 176M126.5 186.5H132L136.5 186L145.5 184.5L156 182L165.5 179.5L175 176.5L184.5 173.5L194.5 169L204 164.5L212 159.5L218 155.5L223.5 152M232 144L236 139L239.5 133L242.5 125.5M145.5 165L153.5 163L166.5 159L175 156L184 152L191.5 148.5L198 145M106.5 204L113.5 204.5H121L129 203.5M210.5 179.5L216.5 177.5L224 173L233 166L239 161.5L243 157M187 233.5L191.5 232.5L200.5 229L208.5 225.5L215 222.5L221 219.5L223.5 216.5M228.5 229L234.5 225.5L240 221.5L247.5 214M218 235L210.5 238.5L200 242.5L190 246L179 249L168.5 251.5L154.5 253L141 253.5L129.5 253" stroke="black" stroke-linecap="round"/>
<path d="M272.5 201L277.5 197.5L284.5 198L289 201.5L290.5 206.5L289.5 211L286.5 215.5L281.5 217L275.5 216L271.5 212L270 207L272.5 201Z" stroke="black" stroke-linecap="round"/>
<path d="M260 231L262 229H264.5L266.5 230.5L267 233L266 235L263.5 236L261 235.5L259.5 233.5L260 231Z" stroke="black" stroke-linecap="round"/>
<path d="M94.5 262L96.5 261L99.5 262C100 262.667 101 264.1 101 264.5C101 264.9 101.167 266.833 101 267.5L98.5 269H95L93.5 267L93 264.5L94.5 262Z" stroke="black" stroke-linecap="round"/>
<path d="M55.5 96.5C57.3333 95 61.1 92 61.5 92L68 91L74.5 93L80.5 100L81 109.5L77 117L68.5 121L59.5 119L53.5 114.5L51.5 105.5L55.5 96.5Z" stroke="black" stroke-linecap="round"/>
<path d="M237 71C238 70.6667 242.1 70 242.5 70L247 73L247.5 78L245.5 82L240.5 83.5L235.5 81L234 75.5L237 71Z" stroke="black" stroke-linecap="round"/>
</svg>
