<svg width="340" height="340" viewBox="0 0 340 340" fill="none" xmlns="http://www.w3.org/2000/svg">
<rect width="340" height="340" fill="white"/>
<mask id="path-1-inside-1" fill="white">
<path fill-rule="evenodd" clip-rule="evenodd" d="M233.193 85.7647C235.57 83.2523 237 80.0228 237 76.5C237 68.4919 229.613 62 220.5 62C218.927 62 217.406 62.1933 215.965 62.5544C215.411 54.987 208.251 49 199.5 49C196.637 49 193.943 49.641 191.596 50.7686C188.666 48.4272 184.773 47 180.5 47C178.927 47 177.406 47.1933 175.965 47.5544C175.411 39.987 168.251 34 159.5 34C153.654 34 148.518 36.672 145.587 40.7021C143.984 40.2463 142.275 40 140.5 40C136.877 40 133.527 41.0261 130.805 42.7657C129.14 42.2693 127.356 42 125.5 42C119.654 42 114.518 44.672 111.587 48.7021C109.984 48.2463 108.275 48 106.5 48C97.3873 48 90 54.4919 90 62.5C90 62.6754 90.0035 62.8501 90.0106 63.024C89.4918 63.5516 89.0157 64.1123 88.5867 64.7021C86.9845 64.2463 85.275 64 83.5 64C74.3873 64 67 70.4919 67 78.5C67 80.7208 67.5681 82.825 68.5836 84.7064C66.948 86.9572 66 89.6313 66 92.5C66 94.418 66.4237 96.249 67.1935 97.9246C65.1859 100.326 64 103.291 64 106.5C64 108.721 64.5681 110.825 65.5836 112.706C63.948 114.957 63 117.631 63 120.5C63 128.508 70.3873 135 79.5 135C80.2377 135 80.9641 134.957 81.6761 134.875C84.3608 139.687 89.9902 143 96.5 143C99.3422 143 102.017 142.368 104.351 141.256C106.886 146.401 112.715 150 119.5 150C120.238 150 120.964 149.957 121.676 149.875C124.361 154.687 129.99 158 136.5 158C139.609 158 142.517 157.244 145 155.93C146.426 156.685 147.993 157.256 149.658 157.605C152.682 160.895 157.312 163 162.5 163C165.342 163 168.017 162.368 170.351 161.256C172.886 166.401 178.715 170 185.5 170C186.238 170 186.964 169.957 187.676 169.875C190.361 174.687 195.99 178 202.5 178C205.609 178 208.517 177.244 211 175.93C213.483 177.244 216.391 178 219.5 178C228.613 178 236 171.508 236 163.5C236 163.33 235.997 163.161 235.99 162.993C236.159 162.998 236.329 163 236.5 163C239.609 163 242.517 162.244 245 160.93C247.483 162.244 250.391 163 253.5 163C262.613 163 270 156.508 270 148.5C270 147.493 269.883 146.511 269.661 145.562C274.086 142.961 277 138.529 277 133.5C277 129.977 275.57 126.748 273.193 124.235C277.318 121.599 280 117.325 280 112.5C280 104.492 272.613 98 263.5 98C261.927 98 260.406 98.1933 258.965 98.5544C258.411 90.987 251.251 85 242.5 85C239.637 85 236.943 85.641 234.596 86.7686C234.15 86.4122 233.682 86.0769 233.193 85.7647Z"/>
</mask>
<path d="M233.193 85.7647L232.467 85.0774L231.636 85.956L232.655 86.6073L233.193 85.7647ZM215.965 62.5544L214.968 62.6275L215.055 63.8135L216.209 63.5244L215.965 62.5544ZM191.596 50.7686L190.972 51.5498L191.463 51.9421L192.029 51.67L191.596 50.7686ZM175.965 47.5544L174.968 47.6275L175.055 48.8135L176.209 48.5244L175.965 47.5544ZM145.587 40.7021L145.313 41.664L145.985 41.855L146.395 41.2903L145.587 40.7021ZM130.805 42.7657L130.519 43.724L130.958 43.8548L131.344 43.6083L130.805 42.7657ZM111.587 48.7021L111.313 49.664L111.985 49.855L112.395 49.2903L111.587 48.7021ZM90.0106 63.024L90.7236 63.7252L91.0273 63.4164L91.0098 62.9836L90.0106 63.024ZM88.5867 64.7021L88.3131 65.664L88.9847 65.855L89.3954 65.2903L88.5867 64.7021ZM68.5836 84.7064L69.3925 85.2943L69.7625 84.7852L69.4636 84.2314L68.5836 84.7064ZM67.1935 97.9246L67.9607 98.566L68.3659 98.0813L68.1022 97.5072L67.1935 97.9246ZM65.5836 112.706L66.3925 113.294L66.7625 112.785L66.4636 112.231L65.5836 112.706ZM81.6761 134.875L82.5494 134.388L82.2242 133.805L81.5611 133.882L81.6761 134.875ZM104.351 141.256L105.248 140.814L104.812 139.929L103.921 140.354L104.351 141.256ZM121.676 149.875L122.549 149.388L122.224 148.805L121.561 148.882L121.676 149.875ZM145 155.93L145.468 155.047L145 154.799L144.532 155.047L145 155.93ZM149.658 157.605L150.394 156.928L150.177 156.692L149.863 156.626L149.658 157.605ZM170.351 161.256L171.248 160.814L170.812 159.929L169.921 160.354L170.351 161.256ZM187.676 169.875L188.549 169.388L188.224 168.805L187.561 168.882L187.676 169.875ZM211 175.93L211.468 175.047L211 174.799L210.532 175.047L211 175.93ZM235.99 162.993L236.017 161.994L234.949 161.965L234.991 163.032L235.99 162.993ZM245 160.93L245.468 160.047L245 159.799L244.532 160.047L245 160.93ZM269.661 145.562L269.154 144.699L268.519 145.073L268.687 145.79L269.661 145.562ZM273.193 124.235L272.655 123.393L271.636 124.044L272.467 124.923L273.193 124.235ZM258.965 98.5544L257.968 98.6275L258.055 99.8136L259.209 99.5244L258.965 98.5544ZM234.596 86.7686L233.972 87.5499L234.463 87.9421L235.029 87.67L234.596 86.7686ZM233.92 86.452C236.454 83.773 238 80.3037 238 76.5H236C236 79.742 234.686 82.7315 232.467 85.0774L233.92 86.452ZM238 76.5C238 67.8221 230.04 61 220.5 61V63C229.186 63 236 69.1616 236 76.5H238ZM220.5 61C218.845 61 217.243 61.2034 215.722 61.5844L216.209 63.5244C217.57 63.1832 219.009 63 220.5 63V61ZM216.963 62.4814C216.363 54.2899 208.667 48 199.5 48V50C207.836 50 214.46 55.6842 214.968 62.6275L216.963 62.4814ZM199.5 48C196.487 48 193.646 48.6745 191.163 49.8672L192.029 51.67C194.241 50.6075 196.786 50 199.5 50V48ZM192.221 49.9874C189.109 47.5013 184.995 46 180.5 46V48C184.551 48 188.223 49.353 190.972 51.5498L192.221 49.9874ZM180.5 46C178.845 46 177.243 46.2034 175.722 46.5844L176.209 48.5244C177.57 48.1832 179.009 48 180.5 48V46ZM176.963 47.4814C176.363 39.2899 168.667 33 159.5 33V35C167.836 35 174.46 40.6842 174.968 47.6275L176.963 47.4814ZM159.5 33C153.355 33 147.909 35.8087 144.778 40.114L146.395 41.2903C149.126 37.5353 153.953 35 159.5 35V33ZM145.86 39.7403C144.169 39.2592 142.368 39 140.5 39V41C142.182 41 143.8 41.2334 145.313 41.664L145.86 39.7403ZM140.5 39C136.688 39 133.151 40.0797 130.267 41.9231L131.344 43.6083C133.903 41.9726 137.066 41 140.5 41V39ZM131.091 41.8074C129.333 41.2833 127.453 41 125.5 41V43C127.259 43 128.947 43.2552 130.519 43.724L131.091 41.8074ZM125.5 41C119.355 41 113.909 43.8087 110.778 48.114L112.395 49.2903C115.126 45.5353 119.953 43 125.5 43V41ZM111.86 47.7403C110.169 47.2592 108.368 47 106.5 47V49C108.182 49 109.8 49.2334 111.313 49.664L111.86 47.7403ZM106.5 47C96.9603 47 89 53.8221 89 62.5H91C91 55.1616 97.8143 49 106.5 49V47ZM89 62.5C89 62.6889 89.0038 62.8771 89.0114 63.0644L91.0098 62.9836C91.0033 62.8232 91 62.662 91 62.5H89ZM89.2976 62.3229C88.745 62.8849 88.2366 63.4833 87.778 64.114L89.3954 65.2903C89.7947 64.7413 90.2387 64.2183 90.7236 63.7252L89.2976 62.3229ZM88.8603 63.7403C87.1692 63.2592 85.3676 63 83.5 63V65C85.1823 65 86.7998 65.2334 88.3131 65.664L88.8603 63.7403ZM83.5 63C73.9603 63 66 69.8221 66 78.5H68C68 71.1616 74.8143 65 83.5 65V63ZM66 78.5C66 80.8946 66.6132 83.1612 67.7036 85.1814L69.4636 84.2314C68.523 82.4887 68 80.547 68 78.5H66ZM67.7746 84.1185C66.0242 86.5273 65 89.4047 65 92.5H67C67 89.8579 67.8717 87.3871 69.3925 85.2943L67.7746 84.1185ZM65 92.5C65 94.5675 65.4572 96.5405 66.2847 98.342L68.1022 97.5072C67.3903 95.9575 67 94.2685 67 92.5H65ZM66.4262 97.2833C64.2818 99.8487 63 103.037 63 106.5H65C65 103.546 66.09 100.804 67.9607 98.566L66.4262 97.2833ZM63 106.5C63 108.895 63.6132 111.161 64.7036 113.181L66.4636 112.231C65.523 110.489 65 108.547 65 106.5H63ZM64.7746 112.119C63.0242 114.527 62 117.405 62 120.5H64C64 117.858 64.8717 115.387 66.3925 113.294L64.7746 112.119ZM62 120.5C62 129.178 69.9603 136 79.5 136V134C70.8143 134 64 127.838 64 120.5H62ZM79.5 136C80.2761 136 81.0409 135.955 81.7911 135.868L81.5611 133.882C80.8872 133.96 80.1992 134 79.5 134V136ZM80.8028 135.362C83.6797 140.519 89.6608 144 96.5 144V142C90.3195 142 85.0419 138.855 82.5494 134.388L80.8028 135.362ZM96.5 144C99.4906 144 102.312 143.335 104.781 142.159L103.921 140.354C101.721 141.401 99.1939 142 96.5 142V144ZM103.454 141.698C106.174 147.218 112.373 151 119.5 151V149C113.056 149 107.598 145.583 105.248 140.814L103.454 141.698ZM119.5 151C120.276 151 121.041 150.955 121.791 150.868L121.561 148.882C120.887 148.96 120.199 149 119.5 149V151ZM120.803 150.362C123.68 155.519 129.661 159 136.5 159V157C130.32 157 125.042 153.855 122.549 149.388L120.803 150.362ZM136.5 159C139.771 159 142.84 158.205 145.468 156.814L144.532 155.047C142.195 156.284 139.447 157 136.5 157V159ZM144.532 156.814C146.042 157.613 147.697 158.216 149.452 158.583L149.863 156.626C148.289 156.296 146.811 155.757 145.468 155.047L144.532 156.814ZM148.921 158.281C152.144 161.787 157.044 164 162.5 164V162C157.579 162 153.221 160.004 150.394 156.928L148.921 158.281ZM162.5 164C165.491 164 168.312 163.335 170.781 162.159L169.921 160.354C167.721 161.401 165.194 162 162.5 162V164ZM169.454 161.698C172.174 167.218 178.373 171 185.5 171V169C179.056 169 173.598 165.583 171.248 160.814L169.454 161.698ZM185.5 171C186.276 171 187.041 170.955 187.791 170.868L187.561 168.882C186.887 168.96 186.199 169 185.5 169V171ZM186.803 170.362C189.68 175.519 195.661 179 202.5 179V177C196.32 177 191.042 173.855 188.549 169.388L186.803 170.362ZM202.5 179C205.771 179 208.84 178.205 211.468 176.814L210.532 175.047C208.195 176.284 205.447 177 202.5 177V179ZM210.532 176.814C213.16 178.205 216.229 179 219.5 179V177C216.553 177 213.805 176.284 211.468 175.047L210.532 176.814ZM219.5 179C229.04 179 237 172.178 237 163.5H235C235 170.838 228.186 177 219.5 177V179ZM237 163.5C237 163.317 236.996 163.135 236.989 162.954L234.991 163.032C234.997 163.187 235 163.343 235 163.5H237ZM235.963 163.993C236.142 163.998 236.321 164 236.5 164V162C236.338 162 236.177 161.998 236.017 161.994L235.963 163.993ZM236.5 164C239.771 164 242.84 163.205 245.468 161.814L244.532 160.047C242.195 161.284 239.447 162 236.5 162V164ZM244.532 161.814C247.16 163.205 250.229 164 253.5 164V162C250.553 162 247.805 161.284 245.468 160.047L244.532 161.814ZM253.5 164C263.04 164 271 157.178 271 148.5H269C269 155.838 262.186 162 253.5 162V164ZM271 148.5C271 147.416 270.874 146.356 270.635 145.334L268.687 145.79C268.892 146.665 269 147.571 269 148.5H271ZM270.168 146.424C274.849 143.673 278 138.938 278 133.5H276C276 138.121 273.324 142.249 269.154 144.699L270.168 146.424ZM278 133.5C278 129.696 276.454 126.227 273.92 123.548L272.467 124.923C274.686 127.269 276 130.258 276 133.5H278ZM273.732 125.078C278.1 122.287 281 117.716 281 112.5H279C279 116.934 276.537 120.912 272.655 123.393L273.732 125.078ZM281 112.5C281 103.822 273.04 97 263.5 97V99C272.186 99 279 105.162 279 112.5H281ZM263.5 97C261.845 97 260.243 97.2034 258.722 97.5844L259.209 99.5244C260.57 99.1832 262.009 99 263.5 99V97ZM259.963 98.4814C259.363 90.2899 251.667 84 242.5 84V86C250.836 86 257.46 91.6842 257.968 98.6275L259.963 98.4814ZM242.5 84C239.487 84 236.646 84.6745 234.163 85.8672L235.029 87.67C237.241 86.6075 239.786 86 242.5 86V84ZM235.221 85.9874C234.747 85.6087 234.25 85.253 233.732 84.922L232.655 86.6073C233.114 86.9008 233.554 87.2156 233.972 87.5499L235.221 85.9874Z" fill="black" mask="url(#path-1-inside-1)"/>
<path d="M102 270.5C121.833 264.667 161.9 243.9 163.5 207.5C165.1 171.1 157.5 161 153.5 160.5M245.5 276C227.167 275 190.8 267.8 192 247C193.2 226.2 199.833 199.333 203 188.5C205.167 184.167 210.1 175.7 212.5 176.5M178.5 185C177 200.167 173.4 231.2 171 234M183.5 259.5C183.5 251.5 182.5 203 188.5 188.5M165 227.5C152 246.5 150.5 251 144.5 256.5" stroke="black" stroke-linecap="round"/>
<path d="M119.5 263.5C111.5 255 96.4 255.611 86 268.811M59.5 275C62.8333 271.167 72.3 264.4 83.5 268C94.7 271.6 95.1667 272.167 94 272M198 260.5C203 257.73 214.7 253.851 221.5 260.5C223.776 262.726 225.481 264.743 226.742 266.5M230 273.5C230 272.46 229.248 269.993 226.742 266.5M226.742 266.5C238.328 263.333 261.5 259.2 261.5 268C261.5 276.8 245.833 275.167 244.5 276" stroke="black" stroke-width="0.5" stroke-linecap="round"/>
</svg>
